<svg id="Layer_1" data-name="Layer 1" xmlns="http://www.w3.org/2000/svg" viewBox="0 0 394.73 79.83"><defs><style>.cls-1{fill:#003da6;}.cls-2{fill:#231f20;}</style></defs><title>masterflo</title><path class="cls-1" d="M394.73 61.79l-39.05-7.72v5.18H266.1V26.6h15.69l-3.29-9h-12.4v-7.5h21.18v32.38h22.06v-9.26h-11.25V1.45h-42.81v16.32h-2.43a13.9 13.9 0 1 0 0 27.8v-8.82a5.08 5.08 0 1 1 0-10.15h2.43v32.65H25.38l2.89-34.86 7.28 10.15 7.24-10.15 1.77 18.09h9.93L53.08 27.7h9.93v14.78h9.93V28.14h7.94v14.34h33a9.27 9.27 0 0 0 7.1-15.22l-8.19-9.72a4.42 4.42 0 0 1 3.38-7.26h22.07v32.2h10.55V10.27h14.8v7.06h-2.36l2.36 8.83v16.32h40.6V30.13l8.17 12.35h10.81l-7.94-13.29a14.56 14.56 0 0 0-6.18-27.75h-13.69V33h-21.84v-7.06h12.9l-2.31-8.6h-10.59v-7.07h10.81V1.45h-69.72a12.36 12.36 0 0 0-9.46 20.3l6.77 8.07a2.21 2.21 0 0 1-1.69 3.62H90.79V15.35a13.9 13.9 0 0 0-27.8 0V18h-11.2L50.13 1.45H44.4l-8.83 15.66-8.78-15.66h-8.43a18.36 18.36 0 0 0-3.35 36.4l1.07-10.9a7.5 7.5 0 0 1 2.28-14.65h1.75l-5.1 52h340.67v5.24zM204.19 10.27h4.86a5.74 5.74 0 0 1 0 11.48h-4.86V10.27zM72.94 15.35a4 4 0 1 1 7.94 0V18h-7.94v-2.65zm261.22 28.57a22 22 0 1 0-22-22 22 22 0 0 0 22 22zm0-34.09a12.14 12.14 0 1 1-12.14 12.14 12.13 12.13 0 0 1 12.14-12.14z"/><path class="cls-2" d="M358.18 1.2h2.06v5.89h1.42V1.2h2.06V0h-5.54v1.2zM369.25 0l-1.24 4.84L366.79 0h-2.12v7.09h1.3V1.54l1.38 5.58h1.36l1.35-5.58v5.58h1.3V0h-2.12zm-200.6 70.43h-.16a1.88 1.88 0 0 0-1.13.33 3 3 0 0 0-.85 1.09l.28-1.25h-1.52l-1.14 6.4h1.66l.54-3a3 3 0 0 1 .56-1.39 1.23 1.23 0 0 1 1-.45h.23l.35.06.32-1.78h-.11zm-35.89 0a1.88 1.88 0 0 0-1.13.33 3 3 0 0 0-.85 1.09l.25-1.25h-1.52l-1.14 6.4h1.68l.54-3a3 3 0 0 1 .56-1.39 1.23 1.23 0 0 1 1-.45h.23l.35.06.32-1.78h-.26zm-13.94 0a2.21 2.21 0 0 0-1.07.25 3.58 3.58 0 0 0-1 .86 1.53 1.53 0 0 0-.56-.84 1.68 1.68 0 0 0-1-.28 2.23 2.23 0 0 0-1.09.27 4 4 0 0 0-1 .9l.19-1h-1.54l-1.14 6.4h1.66l.64-3.4a2.74 2.74 0 0 1 .56-1.3 1.22 1.22 0 0 1 1-.47.69.69 0 0 1 .5.17.62.62 0 0 1 .18.47v.27l-.76 4.25h1.68l.62-3.33a2.9 2.9 0 0 1 .55-1.34 1.17 1.17 0 0 1 .93-.49.77.77 0 0 1 .55.18.69.69 0 0 1 .07.54.67.67 0 0 1 0 .08v.13l-.76 4.25h1.65l.77-4.16v-.35-.29a1.81 1.81 0 0 0-.45-1.31 1.66 1.66 0 0 0-1.21-.46zm-16.37-1.72h-1.66l-.33 1.89h-.89l-.21 1.21h.89l-.63 3.66a2.55 2.55 0 0 0 0 .26v.26a1.07 1.07 0 0 0 .39.92 2.09 2.09 0 0 0 1.24.29 2.83 2.83 0 0 0 .45 0 2.51 2.51 0 0 0 .44-.11l.25-1.45-.42.1h-.21a.48.48 0 0 1-.32-.09.37.37 0 0 1-.1-.29v-.18l.06-.3.54-3.06h.85l.19-1.21h-.91zm4.54 1.71a3.48 3.48 0 0 0-2.64 1.12 3.84 3.84 0 0 0-1 2.76 2.89 2.89 0 0 0 .8 2.14 3 3 0 0 0 2.17.8 3.42 3.42 0 0 0 2.6-1.08 3.86 3.86 0 0 0 1-2.75 2.94 2.94 0 0 0-.78-2.17 2.9 2.9 0 0 0-2.15-.83zm.69 4.68a1.59 1.59 0 0 1-1.32.71 1.25 1.25 0 0 1-1-.4 1.62 1.62 0 0 1-.35-1.11 2.87 2.87 0 0 1 .54-1.76 1.61 1.61 0 0 1 1.32-.74 1.21 1.21 0 0 1 1 .41 1.68 1.68 0 0 1 .35 1.13 2.86 2.86 0 0 1-.54 1.75zm239.42-3.4a1.1 1.1 0 0 1 .73.23 1 1 0 0 1 .33.66h1.63a2 2 0 0 0-.68-1.56 2.85 2.85 0 0 0-1.87-.56 3 3 0 0 0-1.87.52 1.73 1.73 0 0 0-.67 1.45 1.65 1.65 0 0 0 .44 1.2 4.44 4.44 0 0 0 1.65.9h.06a1 1 0 0 1 .92.73.59.59 0 0 1-.24.51 1.21 1.21 0 0 1-.71.17 1.17 1.17 0 0 1-.83-.29 1.13 1.13 0 0 1-.33-.81h-1.59a2.15 2.15 0 0 0 .72 1.69 3 3 0 0 0 2 .61 2.86 2.86 0 0 0 1.9-.59 2 2 0 0 0 .7-1.58 1.67 1.67 0 0 0-.42-1.2 3.89 3.89 0 0 0-1.61-.81q-1.12-.35-1.12-.73a.49.49 0 0 1 .23-.43 1.09 1.09 0 0 1 .63-.12zm-204.47 1.57l.3-1.54h-3.65l.36-1.83h3.89l.26-1.53h-5.68L136.56 77h5.94l.29-1.46h-4.14l.38-2.24h3.61zm11.43-2.85a2.07 2.07 0 0 0-1.12.3 2.73 2.73 0 0 0-.86.94l.19-1h-1.48l-1.56 9h1.67l.66-3.72a1.89 1.89 0 0 0 .67 1 1.93 1.93 0 0 0 1.16.33 2.55 2.55 0 0 0 2.12-1.17 4.85 4.85 0 0 0 .86-2.93 2.87 2.87 0 0 0-.61-1.94 2.09 2.09 0 0 0-1.7-.82zm.09 4.56a1.36 1.36 0 0 1-1.18.72 1.05 1.05 0 0 1-.86-.38 1.63 1.63 0 0 1-.31-1.06 3.12 3.12 0 0 1 .47-1.78 1.39 1.39 0 0 1 1.18-.71 1.06 1.06 0 0 1 .85.35 1.47 1.47 0 0 1 .3 1 3.43 3.43 0 0 1-.45 1.86zm6.39-4.54a3 3 0 0 0-2.38 1 3.91 3.91 0 0 0-.92 2.69 3.18 3.18 0 0 0 .73 2.23 2.63 2.63 0 0 0 2 .8 3.55 3.55 0 0 0 2-.54 2.51 2.51 0 0 0 1.08-1.49h-1.83a1.25 1.25 0 0 1-.47.49 1.35 1.35 0 0 1-.67.16 1.1 1.1 0 0 1-.88-.37 1.57 1.57 0 0 1-.31-1h4.33q.06-.47.08-.7t0-.41a2.58 2.58 0 0 0-2.75-2.86zm1.11 2.63v.11h-2.58a1.93 1.93 0 0 1 .52-1 1.33 1.33 0 0 1 1-.37 1.09 1.09 0 0 1 .83.3 1.27 1.27 0 0 1 .28.9s-.04.01-.04.06zm171.49-2.65a3.48 3.48 0 0 0-2.63 1.12 3.84 3.84 0 0 0-1 2.76 2.89 2.89 0 0 0 .8 2.14 3 3 0 0 0 2.17.8 3.42 3.42 0 0 0 2.6-1.08 3.86 3.86 0 0 0 1-2.75 2.94 2.94 0 0 0-.78-2.17 2.9 2.9 0 0 0-2.15-.83zm.69 4.68a1.59 1.59 0 0 1-1.32.71 1.25 1.25 0 0 1-1-.4 1.62 1.62 0 0 1-.35-1.11 2.87 2.87 0 0 1 .54-1.76 1.61 1.61 0 0 1 1.32-.74 1.21 1.21 0 0 1 1 .41 1.68 1.68 0 0 1 .35 1.13 2.86 2.86 0 0 1-.53 1.75zm7.57-4.69a2.36 2.36 0 0 0-1.15.28 3.62 3.62 0 0 0-1 .91l.18-1h-1.54l-1.1 6.4h1.67l.57-3.46a2.36 2.36 0 0 1 .6-1.28 1.49 1.49 0 0 1 1.1-.46.87.87 0 0 1 .6.18.68.68 0 0 1 .21.54 1.72 1.72 0 0 1 0 .18v.23l-.75 4.07h1.69l.73-4.1q0-.19.05-.37t0-.37a1.67 1.67 0 0 0-.51-1.28 1.91 1.91 0 0 0-1.34-.48zm-191.76.2h-1.85l-1.25 1.93-.81-1.91h-1.79l1.6 3.22-2.3 3.18h1.9l1.24-1.83.79 1.83H149l-1.65-3.18zm-24.85-.17a3 3 0 0 0-2.38 1 3.91 3.91 0 0 0-.92 2.69 3.18 3.18 0 0 0 .73 2.23 2.63 2.63 0 0 0 2 .8 3.55 3.55 0 0 0 2-.54 2.51 2.51 0 0 0 1.08-1.49h-1.83a1.25 1.25 0 0 1-.47.49 1.35 1.35 0 0 1-.67.16 1.1 1.1 0 0 1-.88-.37 1.57 1.57 0 0 1-.31-1h4.33q.06-.47.08-.7t0-.41a2.58 2.58 0 0 0-2.76-2.86zm1.11 2.63v.11h-2.58a1.93 1.93 0 0 1 .52-1 1.33 1.33 0 0 1 1-.37 1.09 1.09 0 0 1 .83.3 1.27 1.27 0 0 1 .28.9s-.02.01-.03.06zm-88-1.26a1 1 0 0 1 1.06 1h1.69a2.38 2.38 0 0 0-.74-1.79 2.89 2.89 0 0 0-2-.62 3.1 3.1 0 0 0-2.43 1 3.89 3.89 0 0 0-.92 2.69 3.13 3.13 0 0 0 .75 2.24 2.82 2.82 0 0 0 2.14.79 3.11 3.11 0 0 0 2-.65 2.93 2.93 0 0 0 1-1.83h-1.66a1.48 1.48 0 0 1-.47.79 1.23 1.23 0 0 1-.81.28 1.15 1.15 0 0 1-.93-.39 1.66 1.66 0 0 1-.33-1.1 3.23 3.23 0 0 1 .47-1.68 1.36 1.36 0 0 1 1.18-.74zm6.89-1.37a3 3 0 0 0-2.38 1 3.91 3.91 0 0 0-.92 2.69 3.18 3.18 0 0 0 .73 2.23 2.63 2.63 0 0 0 2 .8 3.55 3.55 0 0 0 2-.54 2.51 2.51 0 0 0 1.08-1.49h-1.76a1.25 1.25 0 0 1-.47.49 1.35 1.35 0 0 1-.67.16 1.1 1.1 0 0 1-.88-.37 1.57 1.57 0 0 1-.31-1h4.33q.06-.47.08-.7t0-.41a2.58 2.58 0 0 0-2.83-2.86zm1.11 2.63v.11h-2.55a1.93 1.93 0 0 1 .52-1 1.33 1.33 0 0 1 1-.37 1.09 1.09 0 0 1 .83.3 1.27 1.27 0 0 1 .28.9s-.04.01-.04.06zM51.66 77h1.73l1.5-8.63H53.2zm-3.32 0h1.68l1.5-8.63h-1.64zm-21.02-3.73l.3-1.54h-3.65l.36-1.83h3.89l.26-1.53h-5.69L21.24 77h5.94l.3-1.46h-4.14l.38-2.24h3.61zm5.13-2.67l-1.21 1.94-.81-1.91h-1.8l1.6 3.22-2.3 3.18h1.86l1.24-1.83.79 1.83h1.87l-1.65-3.18 2.3-3.22h-1.89zm40.11-1.89h-1.67l-.33 1.89h-.89l-.21 1.21h.89l-.63 3.66a2.55 2.55 0 0 0 0 .26v.26a1.07 1.07 0 0 0 .39.92 2.09 2.09 0 0 0 1.24.29 2.83 2.83 0 0 0 .45 0 2.51 2.51 0 0 0 .44-.11l.25-1.45-.42.1h-.21a.48.48 0 0 1-.32-.09.37.37 0 0 1-.1-.29v-.18l.06-.3.54-3.06h.91l.19-1.21h-.92zm12.63 2.58a3 3 0 0 0-.91-2.31 3.56 3.56 0 0 0-2.5-.81 4.15 4.15 0 0 0-3.27 1.44 5.39 5.39 0 0 0-1.27 3.69 4 4 0 0 0 1 2.87 3.56 3.56 0 0 0 2.72 1 4.14 4.14 0 0 0 2.67-.84A3.63 3.63 0 0 0 84.94 74h-1.83a1.89 1.89 0 0 1-.67 1.15 2 2 0 0 1-1.29.41 2 2 0 0 1-1.52-.57 2.37 2.37 0 0 1-.53-1.66 4.46 4.46 0 0 1 .74-2.65 2.24 2.24 0 0 1 1.89-1 1.78 1.78 0 0 1 1.25.42 1.48 1.48 0 0 1 .46 1.15h1.75zm5 2.72a2.38 2.38 0 0 1-.6 1.29 1.49 1.49 0 0 1-1.1.47.86.86 0 0 1-.58-.23.7.7 0 0 1-.21-.54 1.76 1.76 0 0 1 0-.19v-.22l.72-4h-1.63l-.72 4.07q0 .18-.05.37t0 .38a1.65 1.65 0 0 0 .51 1.27 1.93 1.93 0 0 0 1.37.47 2.32 2.32 0 0 0 1.13-.28 3.74 3.74 0 0 0 1-.91l-.18 1h1.54l1.14-6.4h-1.74zm-23.5-3.61a2.36 2.36 0 0 0-1.15.28 3.62 3.62 0 0 0-1 .91l.18-1h-1.55l-1.12 6.4h1.67l.61-3.45a2.36 2.36 0 0 1 .6-1.28 1.49 1.49 0 0 1 1.1-.46.87.87 0 0 1 .6.18.68.68 0 0 1 .16.56 1.72 1.72 0 0 1 0 .18v.23L66.08 77h1.71l.73-4.1q0-.19.05-.37t0-.37a1.67 1.67 0 0 0-.51-1.28 1.91 1.91 0 0 0-1.35-.48zm-8.18 0a3 3 0 0 0-2.38 1 3.91 3.91 0 0 0-.92 2.69 3.18 3.18 0 0 0 .73 2.23 2.63 2.63 0 0 0 2 .8 3.55 3.55 0 0 0 2-.54 2.51 2.51 0 0 0 1.08-1.49h-1.78a1.25 1.25 0 0 1-.47.49 1.35 1.35 0 0 1-.67.16 1.1 1.1 0 0 1-.88-.37 1.57 1.57 0 0 1-.31-1h4.33q.06-.47.08-.7t0-.41a2.58 2.58 0 0 0-2.79-2.82zm1.11 2.63v.11h-2.56a1.93 1.93 0 0 1 .52-1 1.33 1.33 0 0 1 1-.37 1.09 1.09 0 0 1 .83.3 1.27 1.27 0 0 1 .28.9s-.04.05-.04.1zm36.35-1.38a1.1 1.1 0 0 1 .73.23 1 1 0 0 1 .33.66h1.59a2 2 0 0 0-.68-1.56 2.85 2.85 0 0 0-1.87-.56 3 3 0 0 0-1.87.52 1.73 1.73 0 0 0-.67 1.45 1.65 1.65 0 0 0 .44 1.2 4.44 4.44 0 0 0 1.74.87l.08.08a1 1 0 0 1 .92.73.59.59 0 0 1-.24.51 1.21 1.21 0 0 1-.71.17 1.17 1.17 0 0 1-.83-.29 1.13 1.13 0 0 1-.33-.81h-1.59a2.15 2.15 0 0 0 .72 1.69 3 3 0 0 0 2 .61 2.86 2.86 0 0 0 1.9-.59 2 2 0 0 0 .7-1.58 1.67 1.67 0 0 0-.42-1.2 3.89 3.89 0 0 0-1.61-.81q-1.12-.35-1.12-.73a.49.49 0 0 1 .23-.43 1.09 1.09 0 0 1 .59-.12zm93.88.12a1 1 0 0 1 1.06 1h1.69a2.38 2.38 0 0 0-.74-1.79 2.89 2.89 0 0 0-2-.62 3.1 3.1 0 0 0-2.43 1 3.89 3.89 0 0 0-.92 2.69 3.13 3.13 0 0 0 .75 2.24 2.82 2.82 0 0 0 2.14.79 3.11 3.11 0 0 0 2-.65 2.93 2.93 0 0 0 1-1.83h-1.61a1.48 1.48 0 0 1-.47.79 1.23 1.23 0 0 1-.81.28 1.15 1.15 0 0 1-.93-.39 1.66 1.66 0 0 1-.33-1.1 3.23 3.23 0 0 1 .45-1.79 1.36 1.36 0 0 1 1.18-.59zm65.19-3.09h-1.67l-.33 1.89h-.89l-.21 1.21h.89l-.63 3.66a2.55 2.55 0 0 0 0 .26v.26a1.07 1.07 0 0 0 .39.92 2.09 2.09 0 0 0 1.24.29 2.83 2.83 0 0 0 .45 0 2.51 2.51 0 0 0 .44-.11l.25-1.45-.42.1h-.21a.48.48 0 0 1-.32-.09.37.37 0 0 1-.1-.29v-.18l.06-.3.54-3.06h.91l.19-1.21h-.91zm.75 8.32h1.68l1.11-6.4h-1.69zm7.58-6.4l-2 4.41-.44-4.41h-1.67l.9 6.4h1.83l3.14-6.4h-1.75zm-6.34-.73h1.69l.25-1.5h-1.68zm62.35 4.14a2.38 2.38 0 0 1-.6 1.29 1.49 1.49 0 0 1-1.1.47.86.86 0 0 1-.59-.19.7.7 0 0 1-.21-.54 1.76 1.76 0 0 1 0-.19v-.22l.72-4h-1.72l-.72 4.07q0 .18-.05.37t0 .38a1.65 1.65 0 0 0 .51 1.27 1.93 1.93 0 0 0 1.37.47 2.32 2.32 0 0 0 1.13-.28 3.74 3.74 0 0 0 1-.91l-.18 1h1.54l1.14-6.4h-1.66zm-69-3.09a3.24 3.24 0 0 0-1.89-.48 3.18 3.18 0 0 0-1.87.47 2.12 2.12 0 0 0-.82 1.47h1.63a.76.76 0 0 1 .3-.51 1.17 1.17 0 0 1 .67-.16 1.37 1.37 0 0 1 .71.16.47.47 0 0 1 .26.42q0 .56-1.15.67h-.38a3.8 3.8 0 0 0-2.08.7 2 2 0 0 0-.62 1.61 1.78 1.78 0 0 0 .52 1.34 1.91 1.91 0 0 0 1.39.5 2.3 2.3 0 0 0 .93-.18 2.86 2.86 0 0 0 .84-.6v.64h1.75v-.13a.5.5 0 0 1-.13-.19.76.76 0 0 1 0-.26v-.18-.22l.59-3.39v-.19-.18a1.53 1.53 0 0 0-.68-1.31zm-1.39 3.74a1.28 1.28 0 0 1-.49.81 1.49 1.49 0 0 1-.94.32.8.8 0 0 1-.54-.17.58.58 0 0 1-.2-.46q0-.74 1.27-1a10.62 10.62 0 0 0 1-.25zM282.21 77h1.68l1.5-8.63h-1.7zm29.34 0h1.68l1.5-8.63h-1.68zm-3.64-6.59a3.48 3.48 0 0 0-2.67 1.13 3.84 3.84 0 0 0-1 2.76 2.89 2.89 0 0 0 .8 2.14 3 3 0 0 0 2.17.8 3.42 3.42 0 0 0 2.6-1.08 3.86 3.86 0 0 0 1-2.75 2.94 2.94 0 0 0-.78-2.17 2.9 2.9 0 0 0-2.15-.83zm.69 4.68a1.59 1.59 0 0 1-1.32.71 1.25 1.25 0 0 1-1-.4 1.62 1.62 0 0 1-.35-1.11 2.87 2.87 0 0 1 .54-1.76 1.61 1.61 0 0 1 1.32-.74 1.21 1.21 0 0 1 1 .41 1.68 1.68 0 0 1 .35 1.13 2.86 2.86 0 0 1-.56 1.76zm-19.23-4.68a3.48 3.48 0 0 0-2.66 1.13 3.84 3.84 0 0 0-1 2.76 2.89 2.89 0 0 0 .8 2.14 3 3 0 0 0 2.17.8 3.42 3.42 0 0 0 2.6-1.08 3.86 3.86 0 0 0 1-2.75 2.94 2.94 0 0 0-.78-2.17 2.9 2.9 0 0 0-2.15-.83zm.69 4.68a1.59 1.59 0 0 1-1.32.71 1.25 1.25 0 0 1-1-.4 1.62 1.62 0 0 1-.35-1.11 2.87 2.87 0 0 1 .54-1.76 1.61 1.61 0 0 1 1.32-.74 1.21 1.21 0 0 1 1 .41 1.68 1.68 0 0 1 .35 1.13 2.86 2.86 0 0 1-.55 1.76zm-46.44-4.49l-2 4.41-.44-4.41h-1.69l.9 6.4h1.83l3.14-6.4h-1.75zm24.78-.16a3 3 0 0 0-2.38 1 3.91 3.91 0 0 0-.92 2.69 3.18 3.18 0 0 0 .73 2.23 2.63 2.63 0 0 0 2 .8 3.55 3.55 0 0 0 2-.54 2.51 2.51 0 0 0 1.08-1.49h-1.82a1.25 1.25 0 0 1-.47.49 1.35 1.35 0 0 1-.67.16 1.1 1.1 0 0 1-.88-.37 1.57 1.57 0 0 1-.31-1h4.33q.06-.47.08-.7t0-.41a2.58 2.58 0 0 0-2.79-2.86zm1.11 2.63v.11h-2.58a1.93 1.93 0 0 1 .52-1 1.33 1.33 0 0 1 1-.37 1.09 1.09 0 0 1 .83.3 1.27 1.27 0 0 1 .28.9s-.06.01-.06.06zm12.52-3.14l.28-1.55h-5.17l-1.58 8.63h1.8l.64-3.55h3.16l.28-1.54h-3.12l.36-2h3.36zm-68.45 7.08h1.82l1.57-8.63h-1.81zm22.09-6.59a3.48 3.48 0 0 0-2.66 1.12 3.84 3.84 0 0 0-1 2.76 2.89 2.89 0 0 0 .8 2.14 3 3 0 0 0 2.17.8 3.42 3.42 0 0 0 2.6-1.08 3.86 3.86 0 0 0 1-2.75 2.94 2.94 0 0 0-.78-2.17 2.9 2.9 0 0 0-2.15-.83zm.69 4.68a1.59 1.59 0 0 1-1.32.71 1.25 1.25 0 0 1-1-.4 1.62 1.62 0 0 1-.35-1.11 2.87 2.87 0 0 1 .54-1.76 1.61 1.61 0 0 1 1.32-.74 1.21 1.21 0 0 1 1 .41 1.68 1.68 0 0 1 .35 1.13 2.86 2.86 0 0 1-.55 1.75zm-52.7-4.69a2.36 2.36 0 0 0-1.15.28 3.62 3.62 0 0 0-1 .91l.18-1h-1.54l-1.12 6.4h1.67l.57-3.46a2.36 2.36 0 0 1 .6-1.28 1.49 1.49 0 0 1 1.1-.46.87.87 0 0 1 .6.18.68.68 0 0 1 .22.56 1.72 1.72 0 0 1 0 .18v.23l-.71 4.05h1.69l.73-4.1q0-.19.05-.37t0-.37a1.67 1.67 0 0 0-.51-1.28 1.91 1.91 0 0 0-1.39-.48zm116.75-2.26a3.2 3.2 0 0 0-2.19.71 2.4 2.4 0 0 0-.81 1.9 2 2 0 0 0 .47 1.35 6.81 6.81 0 0 0 2.14 1.27 4.15 4.15 0 0 1 1.11.61.77.77 0 0 1 .24.57 1 1 0 0 1-.36.84 1.6 1.6 0 0 1-1 .29 1.72 1.72 0 0 1-1.16-.35 1.25 1.25 0 0 1-.4-1v-.08h-1.75v.17a2.58 2.58 0 0 0 .87 2 3.46 3.46 0 0 0 2.36.76 3.5 3.5 0 0 0 2.37-.74 2.57 2.57 0 0 0 .86-2.05 2.12 2.12 0 0 0-.51-1.45 5.31 5.31 0 0 0-1.87-1.16l-.33-.14a1.55 1.55 0 0 1-1.26-1.11.8.8 0 0 1 .32-.68 1.45 1.45 0 0 1 .89-.24 1.62 1.62 0 0 1 1.07.31 1.13 1.13 0 0 1 .39.89h1.7v-.08a2.33 2.33 0 0 0-.83-1.9 3.55 3.55 0 0 0-2.33-.69zm26.88 1.72h1.69l.25-1.5h-1.68zm-157.34 0h1.69l.25-1.5h-1.68zM326.04 77h1.68l1.11-6.4h-1.68zm-150.56-6.56a3 3 0 0 0-2.38 1 3.91 3.91 0 0 0-.92 2.69 3.18 3.18 0 0 0 .73 2.23 2.63 2.63 0 0 0 2 .8 3.55 3.55 0 0 0 2-.54 2.51 2.51 0 0 0 1.08-1.49h-1.8a1.25 1.25 0 0 1-.47.49 1.35 1.35 0 0 1-.67.16 1.1 1.1 0 0 1-.88-.37 1.57 1.57 0 0 1-.31-1h4.33q.06-.47.08-.7t0-.41a2.58 2.58 0 0 0-2.79-2.86zm1.11 2.63v.11h-2.58a1.93 1.93 0 0 1 .52-1 1.33 1.33 0 0 1 1-.37 1.09 1.09 0 0 1 .83.3 1.27 1.27 0 0 1 .28.9s-.05.01-.05.06zm20.2-2.63a3 3 0 0 0-2.38 1 3.91 3.91 0 0 0-.92 2.69 3.18 3.18 0 0 0 .73 2.23 2.63 2.63 0 0 0 2 .8 3.55 3.55 0 0 0 2-.54 2.51 2.51 0 0 0 1.08-1.49h-1.83a1.25 1.25 0 0 1-.47.49 1.35 1.35 0 0 1-.67.16 1.1 1.1 0 0 1-.88-.37 1.57 1.57 0 0 1-.31-1h4.33q.06-.47.08-.7t0-.41a2.58 2.58 0 0 0-2.76-2.86zm1.11 2.63v.11h-2.58a1.93 1.93 0 0 1 .52-1 1.33 1.33 0 0 1 1-.37 1.09 1.09 0 0 1 .83.3 1.27 1.27 0 0 1 .28.9s-.03.01-.03.06zm31.22-2.66a2.36 2.36 0 0 0-1.15.28 3.62 3.62 0 0 0-1 .91l.18-1h-1.54l-1.12 6.4h1.67l.63-3.46a2.36 2.36 0 0 1 .6-1.28 1.49 1.49 0 0 1 1.1-.46.87.87 0 0 1 .6.18.68.68 0 0 1 .21.54 1.72 1.72 0 0 1 0 .18v.23l-.71 4.05h1.69l.73-4.1q0-.19.05-.37t0-.37a1.67 1.67 0 0 0-.51-1.28 1.91 1.91 0 0 0-1.41-.46zm96.19-1.69h-1.67l-.33 1.89h-.89l-.21 1.21h.89l-.63 3.66a2.55 2.55 0 0 0 0 .26V76a1.07 1.07 0 0 0 .39.92 2.09 2.09 0 0 0 1.24.29 2.83 2.83 0 0 0 .45 0 2.51 2.51 0 0 0 .44-.11l.25-1.45-.42.1h-.21a.48.48 0 0 1-.32-.09.37.37 0 0 1-.1-.29v-.18l.06-.3.54-3.08h.91l.19-1.21h-.9zM221.85 70.4a2.36 2.36 0 0 0-1.15.28 3.62 3.62 0 0 0-1 .91l.18-1h-1.54l-1.12 6.4h1.67l.58-3.45a2.36 2.36 0 0 1 .6-1.28 1.49 1.49 0 0 1 1.1-.46.87.87 0 0 1 .6.18.68.68 0 0 1 .21.54 1.72 1.72 0 0 1 0 .18v.23l-.71 4.05h1.69l.73-4.1q0-.19.05-.37t0-.37a1.67 1.67 0 0 0-.51-1.28 1.91 1.91 0 0 0-1.38-.46zm-15.62 9.43h1.21v-12h-1.21v12zM168.69 77h1.68l1.11-6.4h-1.69z"/></svg>